<mxfile host="app.diagrams.net" modified="2022-10-03T16:30:36.695Z" agent="5.0 (Windows NT 10.0; Win64; x64) AppleWebKit/537.36 (KHTML, like Gecko) Chrome/106.0.0.0 Safari/537.36" etag="63Vlx267aEwZrnn9TpTt" version="20.3.7" type="github">
  <diagram id="O41P1E466NtBuj9v7-Q6" name="Page-1">
    <mxGraphModel dx="1038" dy="539" grid="1" gridSize="10" guides="1" tooltips="1" connect="1" arrows="1" fold="1" page="1" pageScale="1" pageWidth="827" pageHeight="1169" math="0" shadow="0">
      <root>
        <mxCell id="0" />
        <mxCell id="1" parent="0" />
        <mxCell id="k-ZRSNqZh6d7wRAYTMmC-1" value="" style="swimlane;startSize=0;" vertex="1" parent="1">
          <mxGeometry x="180" y="70" width="790" height="530" as="geometry" />
        </mxCell>
        <mxCell id="k-ZRSNqZh6d7wRAYTMmC-2" value="BUS-Kar App&lt;br&gt;" style="text;html=1;strokeColor=none;fillColor=none;align=center;verticalAlign=middle;whiteSpace=wrap;rounded=0;" vertex="1" parent="k-ZRSNqZh6d7wRAYTMmC-1">
          <mxGeometry x="360" y="20" width="60" height="30" as="geometry" />
        </mxCell>
        <mxCell id="k-ZRSNqZh6d7wRAYTMmC-4" value="Actor" style="shape=umlActor;verticalLabelPosition=bottom;verticalAlign=top;html=1;outlineConnect=0;" vertex="1" parent="1">
          <mxGeometry x="70" y="150" width="30" height="60" as="geometry" />
        </mxCell>
        <mxCell id="k-ZRSNqZh6d7wRAYTMmC-5" value="Actor" style="shape=umlActor;verticalLabelPosition=bottom;verticalAlign=top;html=1;outlineConnect=0;" vertex="1" parent="1">
          <mxGeometry x="70" y="270" width="30" height="60" as="geometry" />
        </mxCell>
        <mxCell id="k-ZRSNqZh6d7wRAYTMmC-6" value="Actor" style="shape=umlActor;verticalLabelPosition=bottom;verticalAlign=top;html=1;outlineConnect=0;" vertex="1" parent="1">
          <mxGeometry x="70" y="480" width="30" height="60" as="geometry" />
        </mxCell>
        <mxCell id="k-ZRSNqZh6d7wRAYTMmC-9" value="Actor" style="shape=umlActor;verticalLabelPosition=bottom;verticalAlign=top;html=1;outlineConnect=0;" vertex="1" parent="1">
          <mxGeometry x="70" y="380" width="30" height="60" as="geometry" />
        </mxCell>
      </root>
    </mxGraphModel>
  </diagram>
</mxfile>
